<svg xmlns="http://www.w3.org/2000/svg" xmlns:xlink="http://www.w3.org/1999/xlink" viewBox="145.27943420410156 31 116.72056579589844 97" width="116.72056579589844px" height="97px"><path d="M 181.000,52.000 C 177.304,53.928 178.000,54.500 175.000,57.000" stroke-width="5.313" stroke="#555555" fill="none" stroke-linecap="round"/><path d="M 175.000,57.000 C 170.365,62.083 171.304,61.928 169.000,68.000" stroke-width="4.383" stroke="#555555" fill="none" stroke-linecap="round"/><path d="M 169.000,68.000 C 168.355,75.579 167.365,75.083 169.000,83.000" stroke-width="4.132" stroke="#555555" fill="none" stroke-linecap="round"/><path d="M 169.000,83.000 C 168.950,87.778 169.355,87.079 171.000,91.000" stroke-width="3.829" stroke="#555555" fill="none" stroke-linecap="round"/><path d="M 171.000,91.000 C 173.273,93.318 172.450,93.278 176.000,94.000" stroke-width="4.074" stroke="#555555" fill="none" stroke-linecap="round"/><path d="M 176.000,94.000 C 179.500,94.000 179.273,94.818 183.000,94.000" stroke-width="4.011" stroke="#555555" fill="none" stroke-linecap="round"/><path d="M 183.000,94.000 C 187.860,92.395 186.500,94.000 190.000,94.000" stroke-width="4.556" stroke="#555555" fill="none" stroke-linecap="round"/><path d="M 190.000,94.000 C 192.543,97.943 191.860,95.395 191.000,100.000" stroke-width="5.035" stroke="#555555" fill="none" stroke-linecap="round"/><path d="M 191.000,100.000 C 186.142,103.278 188.043,103.943 181.000,106.000" stroke-width="3.897" stroke="#555555" fill="none" stroke-linecap="round"/><path d="M 181.000,106.000 C 177.647,107.987 177.642,107.778 174.000,109.000" stroke-width="3.888" stroke="#555555" fill="none" stroke-linecap="round"/><path d="M 174.000,109.000 C 168.535,110.385 168.647,110.487 163.000,111.000" stroke-width="3.528" stroke="#555555" fill="none" stroke-linecap="round"/><path d="M 163.000,111.000 C 157.018,113.035 159.535,111.385 156.000,111.000" stroke-width="4.393" stroke="#555555" fill="none" stroke-linecap="round"/><path d="M 156.000,111.000 C 155.025,104.433 154.518,108.035 158.000,101.000" stroke-width="4.798" stroke="#555555" fill="none" stroke-linecap="round"/><path d="M 158.000,101.000 C 163.301,97.583 161.525,96.933 169.000,96.000" stroke-width="3.559" stroke="#555555" fill="none" stroke-linecap="round"/><path d="M 169.000,96.000 C 172.529,96.289 172.301,95.083 176.000,96.000" stroke-width="4.267" stroke="#555555" fill="none" stroke-linecap="round"/><path d="M 176.000,96.000 C 179.851,96.608 178.529,95.789 181.000,95.000" stroke-width="5.002" stroke="#555555" fill="none" stroke-linecap="round"/><path d="M 181.000,95.000 C 179.405,88.681 182.351,93.108 181.000,89.000" stroke-width="5.209" stroke="#555555" fill="none" stroke-linecap="round"/><path d="M 181.000,89.000 C 187.223,92.043 184.405,89.681 191.000,97.000" stroke-width="4.646" stroke="#555555" fill="none" stroke-linecap="round"/><path d="M 191.000,97.000 C 194.182,103.424 195.223,102.543 197.000,110.000" stroke-width="3.329" stroke="#555555" fill="none" stroke-linecap="round"/><path d="M 197.000,110.000 C 199.498,119.505 198.682,113.924 200.000,118.000" stroke-width="3.559" stroke="#555555" fill="none" stroke-linecap="round"/><path d="M 200.000,118.000 C 200.000,109.500 200.998,115.005 200.000,101.000" stroke-width="4.648" stroke="#555555" fill="none" stroke-linecap="round"/><path d="M 200.000,101.000 C 200.000,96.500 200.000,96.500 200.000,92.000" stroke-width="3.793" stroke="#555555" fill="none" stroke-linecap="round"/><path d="M 200.000,92.000 C 200.000,84.500 200.000,84.500 200.000,77.000" stroke-width="3.191" stroke="#555555" fill="none" stroke-linecap="round"/><path d="M 200.000,77.000 C 200.000,72.000 200.000,72.000 200.000,67.000" stroke-width="3.376" stroke="#555555" fill="none" stroke-linecap="round"/><path d="M 200.000,67.000 C 200.000,59.800 200.000,64.000 200.000,61.000" stroke-width="4.238" stroke="#555555" fill="none" stroke-linecap="round"/><path d="M 200.000,61.000 C 200.000,68.000 200.000,63.800 200.000,75.000" stroke-width="4.747" stroke="#555555" fill="none" stroke-linecap="round"/><path d="M 200.000,75.000 C 198.101,86.304 200.000,83.500 200.000,92.000" stroke-width="3.126" stroke="#555555" fill="none" stroke-linecap="round"/><path d="M 200.000,92.000 C 203.250,89.250 200.601,93.804 205.000,90.000" stroke-width="4.473" stroke="#555555" fill="none" stroke-linecap="round"/><path d="M 205.000,90.000 C 205.401,94.772 206.750,90.750 207.000,95.000" stroke-width="5.077" stroke="#555555" fill="none" stroke-linecap="round"/><path d="M 207.000,95.000 C 209.217,92.392 208.901,95.272 212.000,91.000" stroke-width="5.274" stroke="#555555" fill="none" stroke-linecap="round"/><path d="M 212.000,91.000 C 215.273,88.920 214.217,89.892 217.000,90.000" stroke-width="5.327" stroke="#555555" fill="none" stroke-linecap="round"/><path d="M 217.000,90.000 C 218.101,95.457 219.273,91.420 220.000,96.000" stroke-width="4.834" stroke="#555555" fill="none" stroke-linecap="round"/><path d="M 220.000,96.000 C 222.685,94.367 221.601,96.457 224.000,92.000" stroke-width="5.212" stroke="#555555" fill="none" stroke-linecap="round"/><path d="M 224.000,92.000 C 223.600,87.467 225.185,89.867 225.000,87.000" stroke-width="5.452" stroke="#555555" fill="none" stroke-linecap="round"/><path d="M 225.000,87.000 C 228.525,91.475 226.600,86.467 230.000,90.000" stroke-width="5.508" stroke="#555555" fill="none" stroke-linecap="round"/><path d="M 230.000,90.000 C 233.753,83.733 233.525,86.475 235.000,77.000" stroke-width="5.281" stroke="#555555" fill="none" stroke-linecap="round"/><path d="M 235.000,77.000 C 234.806,69.996 236.253,70.233 235.000,63.000" stroke-width="3.447" stroke="#555555" fill="none" stroke-linecap="round"/><path d="M 235.000,63.000 C 235.703,43.082 235.306,51.996 236.000,41.000" stroke-width="2.683" stroke="#555555" fill="none" stroke-linecap="round"/><path d="M 236.000,41.000 C 236.000,48.500 236.203,39.582 236.000,56.000" stroke-width="4.020" stroke="#555555" fill="none" stroke-linecap="round"/><path d="M 236.000,56.000 C 236.000,63.500 236.000,63.500 236.000,71.000" stroke-width="3.237" stroke="#555555" fill="none" stroke-linecap="round"/><path d="M 236.000,71.000 C 236.000,74.500 236.000,74.500 236.000,78.000" stroke-width="4.428" stroke="#555555" fill="none" stroke-linecap="round"/><path d="M 236.000,78.000 C 235.473,81.101 236.000,81.000 236.000,84.000" stroke-width="4.821" stroke="#555555" fill="none" stroke-linecap="round"/><path d="M 236.000,84.000 C 237.230,86.432 236.473,86.601 238.000,89.000" stroke-width="4.916" stroke="#555555" fill="none" stroke-linecap="round"/><path d="M 237.000,80.000 C 235.682,83.892 237.000,83.000 237.000,86.000" stroke-width="5.427" stroke="#555555" fill="none" stroke-linecap="round"/><path d="M 237.000,86.000 C 239.391,87.565 238.182,87.892 242.000,88.000" stroke-width="5.266" stroke="#555555" fill="none" stroke-linecap="round"/><circle r="1.5" cx="242" cy="87" fill="#555555"/><path d="M 242.000,87.000 C 246.020,83.875 245.500,83.500 249.000,80.000" stroke-width="4.794" stroke="#555555" fill="none" stroke-linecap="round"/><path d="M 249.000,80.000 C 253.071,74.429 251.020,77.375 252.000,74.000" stroke-width="4.710" stroke="#555555" fill="none" stroke-linecap="round"/><path d="M 252.000,74.000 C 247.497,75.377 250.571,73.429 244.000,78.000" stroke-width="4.906" stroke="#555555" fill="none" stroke-linecap="round"/><path d="M 244.000,78.000 C 241.664,80.278 241.497,79.877 240.000,83.000" stroke-width="4.302" stroke="#555555" fill="none" stroke-linecap="round"/><path d="M 240.000,83.000 C 236.535,89.519 236.164,89.278 233.000,96.000" stroke-width="3.236" stroke="#555555" fill="none" stroke-linecap="round"/><path d="M 233.000,96.000 C 230.554,100.531 230.535,100.519 228.000,105.000" stroke-width="3.419" stroke="#555555" fill="none" stroke-linecap="round"/><circle r="1.5" cx="200" cy="64" fill="#555555"/><path d="M 200.000,61.000 C 204.129,60.129 203.000,61.500 206.000,62.000" stroke-width="5.484" stroke="#555555" fill="none" stroke-linecap="round"/><path d="M 206.000,62.000 C 208.176,65.878 208.629,64.629 209.000,70.000" stroke-width="4.979" stroke="#555555" fill="none" stroke-linecap="round"/><path d="M 209.000,70.000 C 209.000,73.500 209.676,73.378 209.000,77.000" stroke-width="4.939" stroke="#555555" fill="none" stroke-linecap="round"/><path d="M 209.000,77.000 C 210.460,81.053 209.000,80.000 209.000,83.000" stroke-width="5.161" stroke="#555555" fill="none" stroke-linecap="round"/><path d="M 209.000,83.000 C 206.079,84.487 207.460,85.053 203.000,85.000" stroke-width="5.449" stroke="#555555" fill="none" stroke-linecap="round"/></svg>